<svg width="121" height="103" viewBox="0 0 121 103" fill="none" xmlns="http://www.w3.org/2000/svg">
<g clip-path="url(#clip0_102_2953)">
<rect width="121" height="103" fill="white"/>
<path d="M86.375 55.1172H60.4297L60.2891 44.2188H83.8438C87.7344 44.2188 91.1328 43.5625 94.0391 42.25C96.9453 40.9375 99.1953 39.0625 100.789 36.625C102.43 34.1406 103.25 31.1875 103.25 27.7656C103.25 24.0156 102.523 20.9687 101.07 18.625C99.6641 16.2344 97.4844 14.5 94.5312 13.4219C91.625 12.2969 87.9219 11.7344 83.4219 11.7344H63.4531V103H49.8828V0.625H83.4219C88.6719 0.625 93.3594 1.16406 97.4844 2.24219C101.609 3.27344 105.102 4.91406 107.961 7.16406C110.867 9.36719 113.07 12.1797 114.57 15.6016C116.07 19.0234 116.82 23.125 116.82 27.9062C116.82 32.125 115.742 35.9453 113.586 39.3672C111.43 42.7422 108.43 45.5078 104.586 47.6641C100.789 49.8203 96.3359 51.2031 91.2266 51.8125L86.375 55.1172ZM85.7422 103H55.0859L62.75 91.9609H85.7422C90.0547 91.9609 93.7109 91.2109 96.7109 89.7109C99.7578 88.2109 102.078 86.1016 103.672 83.3828C105.266 80.6172 106.062 77.3594 106.062 73.6094C106.062 69.8125 105.383 66.5312 104.023 63.7656C102.664 61 100.531 58.8672 97.625 57.3672C94.7188 55.8672 90.9688 55.1172 86.375 55.1172H67.0391L67.1797 44.2188H93.6172L96.5 48.1562C101.422 48.5781 105.594 49.9844 109.016 52.375C112.438 54.7188 115.039 57.7188 116.82 61.375C118.648 65.0312 119.562 69.0625 119.562 73.4688C119.562 79.8438 118.156 85.2344 115.344 89.6406C112.578 94 108.664 97.3281 103.602 99.625C98.5391 101.875 92.5859 103 85.7422 103Z" fill="black"/>
<rect x="-10" y="85" width="81" height="18" fill="white"/>
<path d="M63.9688 91.9609V103H12.7812V91.9609H63.9688ZM15.4531 0.625V103H1.88281V0.625H15.4531Z" fill="black"/>
</g>
<defs>
<clipPath id="clip0_102_2953">
<rect width="121" height="103" fill="white"/>
</clipPath>
</defs>
</svg>
